<?xml version="1.0" encoding="utf-8" ?><svg xmlns="http://www.w3.org/2000/svg" xmlns:xlink="http://www.w3.org/1999/xlink" width="3125" height="1875" viewBox="0 0 3125 1875"><path fill="#C5A577" d="M1272.44 510.517C1363.59 508.583 1460.1 509.634 1551.42 509.789L1671.04 510.22C1691.96 510.432 1717.67 509.514 1738.16 513.582C1744.77 514.893 1756.47 530.526 1757.88 536.862C1761.76 554.409 1760.32 578.036 1760.26 595.949C1808.74 602.327 1839.67 605.615 1880.62 638.496C1953.57 696.779 1967.48 806.823 1907.46 879.349C1862.35 933.85 1810.94 945.011 1744.83 951.214C1735.32 974.344 1728.97 987.869 1716.17 1009.2C1704.6 1027.24 1691.16 1044.01 1676.06 1059.22C1622.1 1114.09 1548.48 1145.17 1471.52 1145.55C1394.15 1146.12 1319.79 1115.63 1265.1 1060.89C1221.82 1017.43 1191.72 960.199 1182.98 899.169C1180.31 880.55 1180.81 855.774 1180.7 836.534C1180.5 805.434 1180.46 774.333 1180.58 743.233L1181.07 534.168C1183.38 530.659 1187.29 524.485 1190.15 521.654C1194.47 517.421 1199.79 514.356 1205.62 512.747C1215.3 510.144 1259.34 510.7 1272.44 510.517ZM1709.22 560.874L1231.1 560.874L1231.99 779.674L1232.32 854.012C1232.55 870.746 1232.27 892.611 1235.8 908.403C1245.33 952.213 1267.32 992.334 1299.13 1023.93C1393.24 1117.22 1545.97 1119 1639.5 1024.13C1720.6 940.927 1709.02 861.932 1709.15 757.05L1709.22 560.874ZM1757.89 898.253C1797.21 893.99 1821.29 888.311 1853.01 862.362C1902.12 815.671 1908.5 740.963 1860.56 690.198C1833.37 661.402 1799.18 651.107 1760.7 647.441C1759.27 660.335 1760.26 688.095 1760.29 702.081L1760.12 820.513C1760.07 841.665 1760.7 878.119 1757.89 898.253Z"/><path fill="#C5A577" d="M1431.58 597.245C1452.6 596.382 1473.07 596.425 1494.34 596.616C1511.78 596.773 1530.09 601.282 1528.55 623.304C1527.82 633.825 1520.83 640.556 1512.01 645.608C1506.46 645.839 1500.57 645.837 1494.98 645.927L1494.98 674.438C1527.47 677.907 1548.33 688.34 1576.83 702.521C1582.1 697.414 1584.78 694.882 1589.12 689.035C1584.48 683.726 1579.38 678.821 1577.47 671.914C1571.99 652.027 1585.5 642.04 1602.43 637.695C1621.4 642.765 1645.28 670.508 1660.41 684.198C1677.29 699.471 1674.78 719.79 1652 728.143C1641.02 732.172 1633.79 726.715 1624.25 721.409C1612.01 730.306 1610.44 733.723 1620.85 744.625C1627.01 751.074 1632.32 759.223 1636.94 766.884C1647.42 784.148 1655.11 802.957 1659.73 822.616C1676.55 897.48 1641.93 980.156 1577.33 1021.24C1553.96 1036.11 1532.94 1044.09 1506.23 1050.12C1400.77 1069.3 1296.35 1002.11 1278 895.13C1270.98 853.608 1278.14 810.933 1298.34 773.979C1305.74 760.651 1316.21 746.633 1325.13 734.004C1321.43 729.89 1317.43 726.228 1313.43 722.416C1297.01 732.178 1277.16 733.026 1268.55 713.358C1259.69 693.099 1292.21 672.422 1303.26 659.748C1307.26 656.387 1322.63 640.816 1327.17 640.429C1369.02 636.853 1367.31 665.718 1350.04 689.373C1353.22 693.923 1358.78 699.319 1362.79 703.438C1394.35 686.068 1407.92 681.306 1443.05 673.898L1443.05 646.673C1428.99 645.439 1415.37 643.295 1411.55 626.949C1409.95 620.332 1411.17 613.348 1414.91 607.662C1419.4 600.965 1424.07 598.723 1431.58 597.245ZM1487.72 1004.33C1565.51 994.191 1620.42 923.022 1610.5 845.209C1600.57 767.397 1529.55 712.289 1451.72 722.001C1373.58 731.75 1318.21 803.103 1328.17 881.216C1338.13 959.329 1409.64 1014.5 1487.72 1004.33Z"/><path fill="#C5A577" d="M1531.59 773.196C1551.1 773.034 1566.95 792.462 1556.25 809.942C1544.57 829.025 1521.52 845.045 1506.66 861.743C1492.23 877.946 1493.93 890.208 1468.39 893.678C1444.59 890.884 1432.94 870.699 1443.78 848.733C1445.34 845.572 1452.97 839.228 1455.99 836.962C1479.38 819.402 1497.98 796.61 1520.25 777.807C1523.12 775.388 1527.98 774.181 1531.59 773.196Z"/><path fill="#C5A577" d="M2253.41 1437.3C2302.18 1433.01 2341.23 1455.85 2360.08 1501.3L2377.29 1484.37L2377.29 1436.54C2397.04 1437.17 2407.5 1439.29 2423.71 1450.56C2448.76 1437.46 2476.31 1432.56 2503.98 1439.91C2530.11 1446.75 2552.39 1463.81 2565.82 1487.24C2579.03 1510.41 2582.53 1537.88 2575.55 1563.62C2568.36 1589.83 2551 1612.09 2527.32 1625.43C2501.09 1640.17 2476.08 1641.12 2447.78 1633.15L2447.78 1680.5L2447.78 1744.92C2428.37 1744.2 2410.58 1740.52 2396.48 1726.28C2373.8 1703.37 2377.22 1670.63 2377.24 1641.2L2377.29 1574.9C2351.41 1601.54 2321.66 1629.58 2283.97 1636.58C2257.5 1641.49 2230.17 1635.51 2208.18 1620C2185.94 1604.32 2170.93 1580.37 2166.52 1553.52C2162.2 1526.94 2168.63 1499.74 2184.4 1477.92C2201.48 1454.36 2225.05 1441.7 2253.41 1437.3ZM2324.29 1536.73C2332.64 1528.81 2340.84 1520.73 2348.88 1512.49C2328.71 1526.22 2317.06 1536.46 2295.02 1547.58C2297.52 1538.22 2297.89 1531.09 2292.93 1521.98C2288.73 1514.37 2281.49 1508.9 2273.02 1506.93C2268.98 1505.96 2265.89 1505.93 2261.8 1506.16C2252.2 1508.58 2245.03 1512.07 2239.58 1521.03C2235 1528.58 2233.82 1537.72 2236.35 1546.19C2238.77 1554.39 2244.55 1561.19 2252.26 1564.91C2277.89 1577.32 2306.63 1552.6 2324.29 1536.73ZM2451.4 1521.45C2447.9 1529.13 2447.09 1531.98 2447.45 1540.73C2454.45 1571.77 2490.3 1578.56 2504.74 1552.84C2509.1 1545.14 2510.06 1535.98 2507.39 1527.55C2502.3 1511.32 2488.81 1505.05 2472.68 1506.33C2443.16 1510.37 2425.49 1526.01 2404.9 1546.38C2422.67 1535.13 2431.63 1529.2 2451.4 1521.45Z"/><path fill="#C5A577" d="M673.714 1361.4C721.396 1355.04 768.564 1381.7 797.098 1418.42C744.371 1469.92 735.066 1426.64 675.701 1431.37C658.337 1432.76 640.635 1444.27 629.913 1458.12C618.716 1472.63 613.883 1491.06 616.518 1509.2C619.095 1527.38 628.876 1543.76 643.661 1554.65C677.614 1580.13 708.611 1563.95 744.247 1555.95C759.277 1552.57 773.594 1561.12 785.33 1570.13C788.888 1573.01 793.671 1577.6 797.173 1580.78L796.276 1581.93C771.579 1613.13 740.526 1632.83 700.428 1637.32C663.269 1641.63 625.942 1630.77 596.902 1607.19C568.485 1584.03 550.419 1550.54 546.67 1514.08C542.753 1476.98 553.929 1439.87 577.679 1411.1C602.459 1381.2 635.394 1365.11 673.714 1361.4Z"/><path fill="#C5A577" d="M1908.04 1359.44C1950.92 1361.55 1980.81 1381.59 2001.25 1418.9C1988.88 1433.32 1968.38 1454 1947.05 1451.46C1933.43 1449.7 1927.13 1436.61 1919.9 1426.49C1911.39 1414.6 1891.75 1414.03 1892.56 1431.91C1893.27 1447.53 1912.43 1458.34 1924.64 1465.22C1942.91 1475.53 1963.34 1484.92 1978.98 1499.38C1994.53 1513.77 2003.72 1533.75 2004.51 1554.92C2005.94 1604.35 1962.4 1637.23 1915.62 1638.18C1872.87 1636.8 1842.04 1615.97 1821.9 1578.78C1834.89 1563.62 1852.9 1545.84 1874.85 1546.42C1897.15 1547.01 1899.09 1579.16 1918.2 1579.87C1934.92 1580.49 1932.45 1557.97 1922.79 1549.26C1899.6 1528.34 1868.8 1520.15 1845.15 1498.85C1829.25 1484.49 1819.82 1464.32 1818.99 1442.91C1817.35 1401.89 1851.05 1366.81 1890.55 1360.81C1896.44 1359.92 1902.1 1359.66 1908.04 1359.44Z"/><path fill="#C5A577" d="M892.647 1437.48C947.868 1429.68 998.936 1468.18 1006.64 1523.42C1014.34 1578.65 975.754 1629.65 920.507 1637.26C865.394 1644.85 814.544 1606.38 806.86 1551.28C799.177 1496.18 837.56 1445.26 892.647 1437.48ZM912.466 1567.66C929.176 1564.53 940.246 1548.52 937.281 1531.78C934.317 1515.04 918.424 1503.81 901.654 1506.6C890.654 1508.44 881.486 1516.04 877.644 1526.51C873.803 1536.97 875.879 1548.7 883.082 1557.21C890.285 1565.73 901.505 1569.72 912.466 1567.66Z"/><path fill="#C5A577" d="M1636.7 1437.3C1684.61 1430.85 1730.64 1460.65 1745.46 1506.17C1751.58 1524.96 1750.4 1542.79 1750.32 1562.25L1630.47 1562.25C1633.35 1563.84 1638.82 1566.9 1641.84 1567.18C1666.2 1569.39 1695.66 1568.12 1720.13 1567.94C1719.03 1581.72 1718.34 1586.39 1713.81 1599.35C1692.62 1648.27 1629.77 1646.77 1591.65 1620.01C1569.57 1604.51 1554.62 1580.82 1550.11 1554.23C1545.58 1527.48 1551.97 1500.03 1567.84 1478.03C1584.9 1454.49 1608.36 1441.76 1636.7 1437.3ZM1621.31 1522.96L1655.5 1522.96L1676.93 1522.96C1668.7 1510.16 1659.83 1505.22 1644.44 1506.22C1632.15 1509.95 1629.11 1512.76 1621.31 1522.96Z"/><path fill="#C5A577" d="M1426.2 1437.31C1474.88 1431.43 1519.77 1460.17 1534.98 1506.59C1541.07 1525.18 1539.95 1542.98 1539.87 1562.25C1504.35 1562.24 1454.09 1560.82 1419.36 1562.54C1423.33 1564.51 1428.73 1567.19 1433.08 1567.48C1457.97 1569.12 1484.41 1568.13 1509.28 1567.94C1509.02 1580.79 1507.09 1588.6 1502.72 1600.5C1500.9 1604.56 1498.72 1608.45 1496.21 1612.13C1470.93 1648.82 1413.06 1642.78 1380.57 1619.67C1358.52 1603.98 1343.68 1580.12 1339.37 1553.4C1335.07 1526.8 1341.56 1499.59 1357.4 1477.79C1374.42 1454.38 1397.97 1441.67 1426.2 1437.31ZM1410.33 1522.96L1444.5 1522.96L1466.24 1522.96C1458.57 1510.59 1449.51 1505.27 1434.65 1506.15C1421.74 1509.47 1418.76 1512.91 1410.33 1522.96Z"/><path fill="#C5A577" d="M1080.5 1361.29C1082.08 1361.13 1083.65 1360.99 1085.23 1360.89C1142.31 1357.66 1190.15 1361.07 1193.41 1430.92C1162.23 1430.94 1131.02 1431.02 1099.84 1430.72C1096.57 1430.69 1095 1431.15 1092.74 1433.47L1092.83 1435.32C1095.49 1437.27 1151.02 1436.56 1158.35 1436.56C1157.12 1479.13 1135.85 1502.79 1092.93 1506.38L1092.93 1528.5L1092.93 1638.19C1057.48 1638.14 1027.68 1618.33 1023.89 1582.22C1019.74 1542.74 1024.36 1496.82 1022.48 1456.91C1020.3 1410.46 1027.13 1369.71 1080.5 1361.29Z"/><path fill="#C5A577" d="M1266.54 1361.3C1268.11 1361.13 1269.68 1360.99 1271.25 1360.9C1328.98 1357.59 1375.67 1361.01 1379.55 1430.92L1281.55 1430.82C1278.82 1432.35 1279.8 1431.25 1278.71 1434.42L1279.72 1436.18C1288.44 1437.39 1333.27 1436.58 1344.47 1436.56C1342.99 1479.18 1322.12 1502.8 1278.98 1506.38L1278.98 1528.5L1278.98 1638.2C1227.34 1638.15 1207.42 1604.61 1208.67 1557C1209.96 1510.83 1206.33 1462.87 1209.8 1416.95C1212.15 1385.7 1237.4 1365.89 1266.54 1361.3Z"/><path fill="#C5A577" d="M2019.75 1372.68C2061.86 1373.23 2085.04 1394.9 2089.57 1436.56L2155.55 1436.56C2153.64 1479.21 2133.63 1502.78 2090 1506.38L2090 1567.96C2099.62 1567.94 2149.32 1567.26 2155.58 1568.61L2156.46 1570.81C2152.09 1614.74 2125.93 1641.38 2080.64 1637.94C2032.27 1634.26 2017.49 1594.93 2019.71 1551.96C2020.39 1538.79 2019.7 1522.11 2019.7 1508.61L2019.75 1372.68Z"/><path fill="#C5A577" d="M1457.98 105.187C1462.84 104.828 1467.46 104.914 1472.06 106.752C1479.18 109.614 1484.79 115.301 1487.56 122.456C1489.58 127.832 1489.73 133.662 1487.68 139.045C1479.1 161.585 1450.12 156.115 1441.86 180.492C1432.05 209.465 1465.68 221.256 1481.19 236.951C1513.58 269.718 1511.51 334.244 1476.26 364.397C1458.61 380.093 1427.88 390.706 1434.87 420.365C1440.11 442.58 1442.84 455.418 1418.64 465.737C1399 468.397 1386.96 456.254 1383.33 437.789C1377.23 406.722 1384.76 367.85 1411.94 348.544C1424.07 339.924 1438.11 332.147 1446.52 319.507C1452.3 311.086 1452.91 289.536 1447.35 280.802C1436.36 264.747 1418.02 258.195 1405.75 242.678C1367.3 194.045 1398.67 117.473 1457.98 105.187Z"/><path fill="#C5A577" d="M1547.78 229.168C1560.33 228.819 1574.09 233.318 1584.71 239.858C1604.1 251.967 1617.95 271.221 1623.26 293.457C1630.53 324.895 1619.02 357.837 1593.24 377.086C1560.32 401.667 1561.5 404.338 1571.62 441.72C1567.73 453.871 1562.52 461.296 1550.06 465.925C1531.69 465.938 1522.12 459.374 1516.45 441.489C1506.8 411.069 1512.83 375.326 1538.42 354.487C1553.91 341.868 1576.19 332.755 1572.71 308.674C1571.77 299.264 1563.54 288.089 1554.89 283.855C1537.06 275.119 1515.92 263.955 1529.7 240.539C1533.9 233.411 1539.75 231.027 1547.78 229.168Z"/><path fill="#C5A577" d="M1524.65 1711.06C1540.88 1707.45 1556.97 1717.61 1560.69 1733.8C1564.41 1750 1554.37 1766.17 1538.19 1770C1521.87 1773.87 1505.51 1763.7 1501.75 1747.35C1497.99 1730.99 1508.27 1714.7 1524.65 1711.06ZM1535 1760.93C1557.18 1750.69 1552.45 1719.97 1528.04 1720.11C1521.55 1722.81 1517.91 1725.05 1515.1 1731.97C1512.78 1737.67 1512.84 1744.05 1515.26 1749.71C1519.27 1758.87 1525.75 1760.97 1535 1760.93Z"/><path fill="#C5A577" d="M2262.08 1711.05C2278.35 1707.45 2294.46 1717.67 2298.12 1733.93C2301.78 1750.18 2291.61 1766.33 2275.37 1770.04C2259.05 1773.78 2242.81 1763.54 2239.13 1747.21C2235.45 1730.88 2245.74 1714.67 2262.08 1711.05ZM2270.94 1761.12C2293.84 1753.46 2291.37 1721.16 2266.32 1720.05C2259.95 1722.13 2256.24 1724.22 2253.1 1730.6C2250.42 1736.18 2250.08 1742.6 2252.17 1748.42C2255.5 1757.6 2261.79 1760.63 2270.94 1761.12Z"/><path fill="#C5A577" d="M989.041 1711.05C1005.3 1707.45 1021.4 1717.66 1025.07 1733.9C1028.74 1750.14 1018.59 1766.3 1002.37 1770.03C986.051 1773.79 969.785 1763.57 966.093 1747.23C962.401 1730.9 972.691 1714.68 989.041 1711.05ZM997.946 1761.12C1004.48 1758.91 1008.26 1756.78 1011.33 1750.1C1013.88 1744.51 1014.13 1738.14 1012.02 1732.38C1008.64 1723.39 1002.33 1720.52 993.336 1720.04C986.93 1722.1 983.207 1724.19 980.059 1730.6C977.368 1736.2 977.042 1742.66 979.153 1748.51C982.52 1757.67 988.804 1760.64 997.946 1761.12Z"/><path fill="#C5A577" d="M1617.79 1710.08C1619.2 1710.03 1625.82 1709.77 1626.73 1710.74C1638.02 1722.85 1648.4 1737.1 1658.65 1750.07L1658.65 1710.13L1670.36 1710.12L1670.36 1770.9C1669.16 1770.96 1661.65 1771.24 1661.01 1770.54C1649.86 1758.36 1639.77 1744.85 1629.55 1731.86L1629.55 1771L1617.79 1771L1617.79 1710.08Z"/><path fill="#C5A577" d="M1876.01 1710.06L1887.92 1710.05L1887.92 1734.79L1915.42 1734.79L1915.42 1710.06L1927.12 1710.05L1927.12 1770.98L1915.42 1770.98L1915.42 1745L1887.92 1745L1887.92 1770.99L1876.01 1770.99L1876.01 1710.06Z"/><path fill="#C5A577" d="M2152.11 1710.23C2167.69 1708.66 2173.53 1710.8 2183.59 1722.57L2174.51 1729.3C2170.45 1723.7 2161.41 1716.97 2154.51 1719.77C2133.41 1728.33 2140.68 1771.84 2166.92 1759.03C2170.64 1757.22 2174.55 1754.64 2176.05 1750.58C2173.61 1745.12 2169.39 1750.18 2163.47 1747.7L2162.27 1741.42C2165.7 1738.62 2179.71 1739.69 2185.15 1739.75C2185.19 1744.87 2185.75 1767.95 2184.39 1770.71C2180.23 1771.3 2179.93 1771.29 2175.8 1770.69C2175.56 1768.92 2175.32 1767.69 2174.94 1765.95C2167.05 1766.2 2162.11 1775.48 2149.59 1769.9C2120.48 1756.93 2124.1 1721.95 2152.11 1710.23Z"/><path fill="#C5A577" d="M1356.92 1710.06C1365.28 1710.14 1391.95 1708.73 1397.9 1711.08C1398.22 1713.23 1398.96 1717.52 1396.83 1718.68C1390.5 1722.15 1376.2 1720.58 1368.78 1720.46L1368.78 1735.08C1376.84 1735.21 1388.34 1732.41 1393.82 1738.09C1394.45 1741.11 1394.75 1741.34 1393.81 1744.33C1388.03 1745.55 1376.25 1744.63 1368.78 1745.11L1368.78 1760.66C1377.92 1760.82 1390.88 1758.47 1397.51 1762.41C1399.6 1766.22 1399.01 1764.78 1399.02 1769.47C1395.95 1772.37 1363.58 1771.03 1356.92 1770.98L1356.92 1710.06Z"/><path fill="#C5A577" d="M1985.54 1710.06C1993.8 1710.14 2021.11 1708.69 2026.81 1711.1C2027.16 1714.49 2027.45 1715.12 2025.91 1718.22C2020.48 1722.51 2005.71 1720.55 1997.27 1720.46L1997.27 1735.08C2005.59 1735.02 2017.47 1733.7 2024.22 1738.57L2023.86 1741.69C2016.95 1746.14 2005.58 1745 1997.27 1744.82L1997.27 1760.66L2027.87 1760.66C2027.87 1763.65 2028.33 1768.22 2026.87 1770.57C2018.38 1771.68 1995.15 1771.03 1985.54 1770.98L1985.54 1710.06Z"/><path fill="#C5A577" d="M1262.58 1710.06C1270.86 1710.14 1298.11 1708.69 1303.83 1711.1C1304.18 1714.49 1304.47 1715.13 1302.91 1718.21C1297.45 1722.51 1282.75 1720.55 1274.3 1720.46L1274.3 1735.08C1282.11 1735.19 1296.92 1731.79 1300.32 1739.51C1298.64 1748.07 1281.71 1744.96 1274.3 1744.82L1274.3 1760.66L1304.89 1760.66C1304.89 1763.67 1305.35 1768.22 1303.87 1770.58C1295.34 1771.69 1272.22 1771.03 1262.58 1770.98L1262.58 1710.06Z"/><path fill="#C5A577" d="M885.501 1710.13C900.98 1709.41 905.568 1710.87 915.763 1722.7L906.376 1729.2C902.084 1722.91 892.112 1715.95 884.825 1720.71C864.878 1733.74 874.332 1774.38 903.196 1756.83C904.433 1755.11 904.931 1754.55 906.322 1752.98C910.398 1752.99 912.231 1755.06 916.223 1757.48C895.366 1791.68 847.909 1758.39 865.11 1725.2C869.381 1716.96 876.967 1712.79 885.501 1710.13Z"/><path fill="#C5A577" d="M1079.98 1710.06C1090.27 1709.99 1110.4 1709.35 1119.87 1710.45C1121.38 1712.79 1120.91 1717.44 1120.92 1720.46L1091.86 1720.46L1091.86 1736.1C1098.72 1736.22 1109.48 1734.35 1115.26 1737.25C1116.41 1737.83 1116.94 1740.87 1117.43 1742.48L1115.71 1744.99C1111.27 1746.76 1096.99 1745.98 1091.86 1745.85L1091.86 1770.98L1079.98 1770.99L1079.98 1710.06Z"/><path fill="#C5A577" d="M1171.07 1710.06C1178.74 1710.13 1206.47 1708.82 1211.57 1710.87C1211.85 1714.82 1211.86 1715.94 1211.36 1719.86C1208.33 1721.28 1187.8 1720.52 1182.98 1720.46L1182.98 1736.1C1189.92 1736.22 1200.46 1734.37 1206.34 1737.22C1207.56 1737.81 1208.03 1740.78 1208.53 1742.47L1206.95 1744.99C1202.35 1746.76 1188.28 1745.98 1182.98 1745.85L1182.98 1770.99L1171.07 1770.99L1171.07 1710.06Z"/><path fill="#C5A577" d="M1772.54 1710.06C1783.17 1710.02 1813.1 1709.11 1822.19 1710.6C1823.55 1713.23 1823.7 1717.36 1821.65 1719.71C1816.76 1721.2 1809.18 1720.59 1803.81 1720.46L1803.81 1751.5L1803.81 1770.98L1791.99 1770.99L1791.99 1720.46C1786.21 1720.45 1778.8 1721.94 1773.9 1719.21C1771.72 1715.27 1772.53 1715.28 1772.54 1710.06Z"/><path fill="#C5A577" d="M2349.15 1709.51L2360.8 1709.51L2360.8 1748.05L2349.15 1748.05L2349.15 1709.51Z"/><path fill="#C5A577" d="M2349.15 1758.01L2360.81 1757.99L2360.8 1770.98C2357.22 1771.07 2353.11 1771.69 2350.2 1769.92C2348.32 1766.88 2349.03 1761.83 2349.15 1758.01Z"/></svg>