<?xml version="1.0" encoding="utf-8" ?><svg xmlns="http://www.w3.org/2000/svg" xmlns:xlink="http://www.w3.org/1999/xlink" width="3125" height="1875" viewBox="0 0 3125 1875"><path fill="#C5A577" d="M2564.74 753.446C2583.54 751.801 2609.56 756.688 2626.79 764.072C2665.91 780.83 2690.4 807.397 2706.51 846.048C2714.6 837.905 2722.83 829.905 2731.19 822.05L2731.19 753.145C2757.84 753.766 2776.12 757.615 2797.62 773.447C2833.59 754.31 2874.38 747.469 2914.08 758.378C2951.38 768.623 2983.05 793.325 3002.07 827.007C3020.98 860.642 3025.66 900.45 3015.04 937.552C3004.3 974.734 2979.22 1006.12 2945.32 1024.81C2908.08 1045.35 2872.06 1046.84 2832.09 1035.22L2832.09 1111.5L2832.09 1195.38C2804.73 1194.83 2779.03 1189.21 2759.03 1169.35C2726 1136.53 2731.14 1089.44 2731.15 1047.12L2731.19 951.626C2690.55 992.839 2646.04 1036.07 2585.26 1041.96C2546.8 1045.62 2508.48 1033.73 2478.86 1008.94C2449.15 984.173 2430.63 948.525 2427.44 909.985C2424.16 871.209 2436.64 832.745 2462.06 803.285C2489.11 771.96 2523.94 756.395 2564.74 753.446ZM2654.22 897.995C2666.38 886.255 2678.39 874.363 2690.25 862.319C2661.98 880.933 2644.78 897.514 2613.07 912.571C2616.99 899.498 2617.16 888.303 2610.22 875.976C2604.39 865.442 2594.54 857.723 2582.91 854.585C2576.5 852.83 2572.61 852.954 2566.11 853.204C2552.63 856.065 2542.68 860.923 2534.8 872.868C2527.96 883.219 2525.67 895.918 2528.44 908.007C2530.9 919.262 2537.73 929.079 2547.43 935.296C2583.73 958.213 2628.53 921.019 2654.22 897.995ZM2769.2 912.458C2792.99 896.614 2809.7 885.036 2837.22 875.465C2833.41 883.896 2832.19 887.014 2831.6 896.483C2832.31 909.625 2836.02 921.775 2846.12 930.965C2864.68 947.856 2893.75 945.104 2909.87 926.177C2936.74 894.649 2909.21 847.91 2868.59 853.372C2826.23 858.377 2798.16 883.298 2769.2 912.458Z"/><path fill="#C5A577" d="M289.637 645.415C299.615 643.9 322.737 645.463 332.596 647.005C387.493 655.589 431.592 683.167 464.576 727.332C388.46 801.993 370.976 737.978 293.995 745.618C267.818 748.181 243.734 761.048 227.052 781.383C210.598 801.535 202.199 828.107 205.129 854.045C208.064 880.347 221.348 904.399 242.047 920.889C271.271 944.188 311.115 947.195 345.54 936.451C391.812 922.009 408.69 913.67 449.315 946.25C454.626 950.593 459.708 955.532 464.714 960.246C462.48 963.198 460.196 966.111 457.861 968.984C424.459 1010.28 375.887 1036.46 323.025 1041.64C270.658 1046.87 218.343 1031.21 177.474 998.048C136.085 964.269 110.03 915.257 105.178 862.055C100.224 808.959 116.813 756.099 151.218 715.356C186.864 673.13 234.928 649.864 289.637 645.415Z"/><path fill="#C5A577" d="M2043.18 643.397C2059.67 641.19 2084.41 644.358 2100.09 649.481C2142.63 663.379 2171.02 688.921 2191.65 727.849C2189.24 730.818 2186.77 733.741 2184.26 736.618C2169.48 753.276 2144.26 774.292 2121.19 774.681C2089.5 776.613 2088 751.279 2071.71 734.376C2055.91 720.17 2031.96 725.934 2036.41 749.993C2039.62 768.319 2058.96 781.724 2074.03 790.173C2126.67 819.684 2186.66 842.691 2195.26 911.396C2204.06 981.626 2150.99 1032.29 2085.19 1041.82C2019.01 1046.63 1965.16 1015.96 1934.6 957.205C1954.77 933.724 1989.59 900.222 2023.5 914.414C2046.23 923.921 2046.46 960.166 2075.66 958.677C2079.78 958.467 2084.7 955.709 2087.15 952.195C2100.27 928.201 2071.85 905.7 2053.29 895.554C2026.85 880.413 1998.62 867.352 1974.58 848.509C1949.97 829.143 1934.23 800.65 1930.94 769.504C1923.16 702.329 1979.37 650.358 2043.18 643.397Z"/><path fill="#C5A577" d="M613.95 753.46C693.809 749.037 762.103 810.258 766.401 890.125C770.699 969.991 709.371 1038.19 629.498 1042.36C549.801 1046.53 481.787 985.363 477.498 905.673C473.209 825.983 534.266 757.873 613.95 753.46ZM628.47 941.665C652.722 938.068 669.488 915.52 665.95 891.259C662.411 866.998 639.905 850.177 615.635 853.656C591.281 857.147 574.389 879.748 577.94 904.094C581.49 928.439 604.133 945.275 628.47 941.665Z"/><path fill="#C5A577" d="M1680.62 753.439C1682.41 753.312 1683.69 753.234 1685.5 753.221C1724.83 752.768 1762.64 768.358 1790.23 796.395C1832.55 839.188 1832.17 879.349 1832 933.748L1660.37 933.759C1680.27 945.621 1700.73 942.352 1723.21 942.182L1788.19 941.873C1787.59 963.279 1784.43 976.823 1775.16 996.053C1759.5 1024.96 1732.89 1039.05 1700.8 1042C1662.52 1045.6 1624.38 1033.79 1594.83 1009.19C1565.12 984.475 1546.53 948.895 1543.21 910.386C1539.8 871.548 1552.21 832.976 1577.62 803.41C1604.63 772.005 1639.8 756.399 1680.62 753.439ZM1647.37 877.126L1693.5 877.126L1726.66 877.126C1715.26 859.635 1703.25 852.045 1681.96 853.229C1666.53 856.232 1657.19 862.307 1648.44 875.447C1648.07 876 1647.71 876.56 1647.37 877.126Z"/><path fill="#C5A577" d="M1378.59 753.438C1380.39 753.285 1382.19 753.21 1384 753.214C1448.64 753.408 1504.35 793.831 1523.64 855.712C1531.64 881.374 1530.04 907.269 1529.96 933.748L1359.26 933.748C1375.88 945.48 1398.33 942.281 1417.95 942.189L1486.15 941.873C1485.58 962.701 1482.39 976.872 1473.3 995.569C1470.53 1000.77 1467.27 1005.7 1463.57 1010.3C1447.09 1030.51 1423.81 1039.76 1398.33 1042.03C1360.06 1045.53 1321.97 1033.63 1292.49 1008.98C1262.79 984.143 1244.28 948.439 1241.11 909.853C1237.84 871.17 1250.27 832.8 1275.59 803.374C1302.62 771.986 1337.76 756.374 1378.59 753.438ZM1345.29 877.126L1391.5 877.126L1424.59 877.126C1413.24 859.681 1401.17 852.037 1379.83 853.244C1364.47 856.206 1355.23 862.277 1346.5 875.256C1346.09 875.873 1345.69 876.497 1345.29 877.126Z"/><path fill="#C5A577" d="M882.905 644.448L883.734 644.41C898.838 643.87 914.357 644.487 929.384 644.211C993.805 643.027 1031.48 680.701 1033.09 745.125C1017.98 745.111 892.559 744.176 889.091 746.375C888.19 749.683 888.218 747.995 889.547 751.585C890.363 752.132 891.179 752.679 891.996 753.225C914.148 753.25 963.88 753.197 982.956 753.183C981.344 813.983 950.355 848.588 888.944 853.516L888.944 899.5L888.944 1042.81C830.086 1041.01 794.043 1011.61 788.421 950.721C787.261 938.15 787.941 924.665 787.958 911.971L788.025 845.291L787.93 777.477C787.898 740.529 785.951 704.832 812.199 674.703C831.209 652.881 854.9 646.341 882.905 644.448Z"/><path fill="#C5A577" d="M1150.05 644.433C1165.63 643.921 1181.53 644.433 1197.03 644.236C1261.78 643.415 1297.91 680.962 1300.06 745.125L1157.46 745.096L1156.3 746.365C1156.03 749.639 1155.43 750.341 1156.62 752.915C1160.86 753.84 1176.57 753.119 1182.31 753.12L1249.88 753.183C1248.09 814.015 1217.42 848.56 1155.88 853.515L1155.88 899.5L1155.88 1042.8C1096.78 1041.27 1060.42 1010.91 1055.27 949.925C1054.21 937.333 1054.89 923.731 1054.91 911.019L1054.97 843.373L1054.88 775.398C1054.85 738.737 1053.28 703.69 1079.71 674.009C1098.79 652.588 1122.28 646.299 1150.05 644.433Z"/><path fill="#C5A577" d="M2218.15 661.703C2277.24 662.146 2313.12 693.786 2318.42 753.183L2413.05 753.183C2412.76 813.782 2379.19 848.738 2319.06 853.521L2319.06 941.875C2329.62 941.893 2409.99 941.012 2413.61 942.612L2414.25 947.833C2406.64 1005.35 2378 1041.12 2317.13 1042.64C2265.51 1043.93 2229.71 1014.07 2220.53 963.384C2217.38 945.946 2218.06 930.403 2218.08 912.864L2218.16 856.71L2218.15 661.703Z"/><path fill="#C5A577" d="M1512.24 1146.34C1536.13 1143.35 1557.88 1160.39 1560.7 1184.3C1563.53 1208.21 1546.35 1229.85 1522.42 1232.51C1498.72 1235.15 1477.33 1218.17 1474.53 1194.48C1471.73 1170.8 1488.57 1149.29 1512.24 1146.34ZM1520.98 1218.6C1553.94 1210.02 1549.39 1159.42 1514.46 1160.18C1482 1168.35 1485.04 1218.79 1520.98 1218.6Z"/><path fill="#C5A577" d="M743.978 1146.34C767.823 1143.35 789.556 1160.31 792.448 1184.17C795.339 1208.03 778.287 1229.69 754.418 1232.48C730.688 1235.26 709.179 1218.33 706.305 1194.61C703.431 1170.89 720.272 1149.31 743.978 1146.34ZM753.166 1218.54C786.07 1208.99 780.417 1159.52 746.543 1160.15C713.371 1168.03 716.94 1219.45 753.166 1218.54Z"/><path fill="#C5A577" d="M2569.93 1146.34C2593.76 1143.35 2615.49 1160.3 2618.4 1184.14C2621.3 1207.99 2604.28 1229.66 2580.42 1232.48C2556.68 1235.28 2535.15 1218.36 2532.26 1194.63C2529.37 1170.91 2546.21 1149.32 2569.93 1146.34ZM2579.16 1218.54C2612.2 1208.82 2606.09 1159.4 2572.58 1160.15C2539.33 1167.94 2542.84 1219.47 2579.16 1218.54Z"/><path fill="#C5A577" d="M1641.75 1145.75L1654.77 1145.75C1670.02 1164.76 1685.18 1183.85 1700.24 1203.01L1700.24 1145.88L1717.2 1145.88L1717.2 1232.83C1713.88 1233.09 1707 1232.96 1703.45 1233C1689.19 1214.35 1673.33 1195.59 1658.72 1176.9L1658.72 1233L1641.75 1233L1641.75 1145.75Z"/><path fill="#C5A577" d="M2012.12 1145.78L2029.09 1145.78L2029.09 1180.99L2068.83 1180.99L2068.83 1145.78L2085.66 1145.78C2085.79 1174.85 2085.75 1203.92 2085.55 1233L2068.83 1233L2068.83 1195.82L2029.09 1195.82L2029.09 1233L2012.12 1233L2012.12 1145.78Z"/><path fill="#C5A577" d="M2413.95 1145.24C2431.51 1143.84 2443.3 1149.36 2452.94 1164.1L2440.39 1173.42C2411.48 1133.67 2371.57 1190.84 2405.43 1214.35C2410.9 1218.13 2417.7 1219.46 2424.19 1218.02C2430.87 1216.57 2443.7 1209.63 2441.56 1201.31C2438.12 1200.01 2428.32 1200.51 2424.05 1200.56C2424.07 1196.21 2423.31 1191.24 2425.28 1188.08L2455.78 1188.08L2455.78 1233C2451.17 1233.01 2446.87 1233.92 2443.17 1231.66C2441.08 1228.35 2441.7 1229.54 2442 1224.87L2441.02 1224.3C2436.71 1227.58 2429.63 1232.18 2424.29 1232.83C2368.12 1239.63 2356.12 1155.57 2413.95 1145.24Z"/><path fill="#C5A577" d="M2169.16 1145.78L2228.84 1145.78L2228.84 1160.62L2186.14 1160.62L2186.14 1181.66L2222.99 1181.66L2222.99 1195.29C2210.71 1195.17 2198.42 1195.22 2186.14 1195.42L2186.14 1218.06L2229.92 1218.06L2229.92 1233L2169.16 1233L2169.16 1145.78Z"/><path fill="#C5A577" d="M1132.19 1145.78L1191.86 1145.78L1191.86 1160.62L1149.16 1160.62L1149.16 1181.66L1186 1181.66L1186 1195.29C1173.72 1195.17 1161.44 1195.22 1149.16 1195.42L1149.16 1218.06L1192.94 1218.06L1192.94 1233L1132.19 1233L1132.19 1145.78Z"/><path fill="#C5A577" d="M1267.6 1145.78L1327.04 1145.78L1327.04 1160.62L1284.55 1160.62L1284.55 1181.66L1321.2 1181.66L1321.2 1195.29C1315.4 1195.24 1287.93 1194.49 1284.55 1196.18L1284.55 1218.06L1328.1 1218.06L1328.1 1233L1267.6 1233L1267.6 1145.78Z"/><path fill="#C5A577" d="M596.288 1145.3C612.981 1143.97 625.323 1150.02 634.181 1164.18L621.547 1172.84C612.868 1160.78 598.423 1154.95 585.478 1164.89C558.341 1185.75 585.269 1238.83 618.129 1211.06C619.497 1208.69 619.403 1208.39 621.572 1206.84C626.308 1206.92 631.572 1211.05 635.825 1213.73C629.346 1223.36 621.622 1229.89 610.067 1232.78C599.608 1235.44 588.519 1233.7 579.368 1227.99C544.804 1206.66 550.801 1151.96 596.288 1145.3Z"/><path fill="#C5A577" d="M1001.09 1145.78L1059.87 1145.78L1059.87 1160.62L1018.06 1160.62L1018.06 1183.04C1027.36 1182.97 1043.25 1182.49 1051.91 1183.42C1053.25 1185.9 1052.95 1188.74 1053.06 1191.76C1052.96 1193.05 1052.63 1194.4 1052.38 1195.69C1047.89 1198.17 1024.89 1196.99 1018.06 1196.91L1018.06 1233L1001.09 1233L1001.09 1145.78Z"/><path fill="#C5A577" d="M870.3 1145.78L929.01 1145.78L929.01 1160.62L887.263 1160.62L887.263 1183.04C898.184 1182.95 910.138 1182.59 920.959 1183.26C922.48 1186.04 922.076 1188.71 922.15 1192.09L921.809 1195.42C918.372 1198.3 893.433 1196.99 887.263 1196.91L887.263 1233L870.3 1233L870.3 1145.78Z"/><path fill="#C5A577" d="M1863.82 1145.78L1936.34 1145.78L1936.34 1160.62L1908.49 1160.62L1908.49 1204.5L1908.49 1233L1891.73 1233L1891.73 1160.62L1863.82 1160.62L1863.82 1145.78Z"/><path fill="#C5A577" d="M2690.96 1144.9L2707.33 1144.9L2707.33 1200.09L2690.96 1200.09L2690.96 1144.9Z"/><path fill="#C5A577" d="M2690.96 1214.36L2707.33 1214.36L2707.33 1233L2690.96 1233L2690.96 1214.36Z"/></svg>